<svg xmlns="http://www.w3.org/2000/svg" width="70" height="83" viewBox="0 0 70 83">
    <path fill="#FFF" fill-rule="evenodd" d="M9.8 21.102h22.064c8.677 0 15.736 7.055 15.736 15.728 0 5.953-3.323 11.141-8.217 13.814L9.8 21.102zm57.75 15.984C67.55 16.636 51.248 0 31.208 0H0v3.501l31.208.03c18.13 0 32.88 15.054 32.88 33.555 0 10.866-5.087 20.542-12.959 26.677l-3.708-3.78c6.95-5.14 11.48-13.487 11.48-22.897 0-15.58-12.423-28.256-27.69-28.256L0 8.858v3.504h31.21c13.359 0 24.229 11.093 24.229 24.724 0 8.438-4.16 15.902-10.502 20.365l-3.751-3.825c5.434-3.425 9.061-9.558 9.061-16.54 0-10.71-8.541-19.425-19.036-19.425H1.01l34.141 34.806c-1.26.335-2.579.514-3.941.514H0v3.525l31.21.007c2.357 0 4.611-.438 6.697-1.238l3.945 4.022a23.674 23.674 0 0 1-10.641 2.515L0 61.802v3.541h31.21a27.07 27.07 0 0 0 13.21-3.428l3.802 3.877a32.208 32.208 0 0 1-17.014 4.85H0v3.512l31.208.02c7.182 0 13.885-2.139 19.526-5.82l10.904 11.114L0 79.45V83h70L53.597 66.278c8.49-6.795 13.953-17.353 13.953-29.192z"/>
</svg>
